<?xml version="1.0" standalone="no"?>
<!DOCTYPE svg PUBLIC "-//W3C//DTD SVG 20010904//EN"
 "http://www.w3.org/TR/2001/REC-SVG-20010904/DTD/svg10.dtd">
<svg version="1.0" xmlns="http://www.w3.org/2000/svg"
 width="800.000000pt" height="800.000000pt" viewBox="0 0 800.000000 800.000000"
 preserveAspectRatio="xMidYMid meet">
<metadata>
Created by potrace 1.11, written by Peter Selinger 2001-2013
</metadata>
<g transform="translate(0.000000,800.000000) scale(0.100000,-0.100000)"
fill="#000000" stroke="none">
<path d="M6676 6720 c-3 -8 -15 -46 -27 -85 -60 -192 -109 -330 -118 -333 -5
-2 -8 -9 -5 -17 6 -14 -32 -114 -111 -290 -14 -33 -30 -67 -36 -75 -5 -8 -12
-22 -16 -30 -10 -24 -81 -126 -99 -144 -9 -10 -14 -19 -11 -22 3 -3 48 38 101
92 52 54 98 96 100 93 5 -5 -66 -153 -76 -157 -5 -2 -8 -9 -8 -14 0 -6 -22
-43 -48 -82 -26 -39 -51 -77 -55 -83 -12 -19 21 -4 51 23 18 18 28 21 38 13 9
-8 11 -6 8 8 -4 14 4 22 33 32 21 8 44 16 51 18 23 9 12 -38 -25 -109 -20 -38
-42 -72 -50 -75 -7 -3 -13 -9 -13 -15 0 -16 -110 -159 -119 -154 -4 3 -8 -1
-8 -9 0 -13 -102 -143 -113 -144 -7 -1 -181 -171 -175 -171 13 0 64 27 88 47
33 26 130 73 166 80 14 2 28 6 33 9 4 3 8 -6 8 -20 0 -39 -64 -110 -215 -237
-56 -46 -107 -90 -115 -97 -36 -30 -93 -72 -100 -72 -9 0 -62 -52 -57 -56 6
-6 77 17 77 24 0 4 21 14 48 21 26 8 52 18 58 22 6 5 44 12 85 15 70 6 76 5
102 -19 65 -62 12 -152 -154 -263 -37 -24 -73 -44 -80 -44 -7 0 -22 -9 -33
-19 -22 -20 -242 -133 -286 -146 -14 -4 -41 -16 -60 -26 -19 -11 -42 -19 -52
-19 -9 0 -20 -4 -23 -10 -3 -5 -17 -10 -29 -10 -13 0 -37 -7 -52 -15 -16 -8
-37 -15 -46 -15 -10 0 -18 -6 -18 -12 -1 -19 113 -242 128 -251 6 -4 12 -12
12 -18 0 -11 134 -216 150 -229 4 -3 15 -20 25 -37 11 -18 23 -33 27 -33 4 0
8 -7 8 -15 0 -8 3 -15 8 -15 11 0 97 -111 95 -122 -2 -4 3 -8 10 -9 15 0 133
-137 130 -150 -2 -5 2 -9 8 -9 14 0 179 -167 179 -180 0 -6 6 -10 13 -10 6 0
42 -29 79 -63 36 -34 79 -73 95 -86 166 -142 148 -127 293 -239 107 -81 400
-282 413 -282 3 0 32 -17 64 -38 32 -22 63 -41 68 -43 25 -10 173 -101 200
-123 17 -13 27 -27 23 -31 -8 -8 -129 14 -142 26 -6 5 -17 9 -26 9 -22 0 -240
112 -287 147 l-38 28 25 -31 c14 -17 27 -30 29 -28 2 2 9 -2 16 -9 27 -26 91
-74 159 -119 39 -26 79 -55 89 -63 32 -29 185 -85 231 -85 52 0 74 16 77 55 5
68 -24 98 -223 233 -87 59 -167 112 -179 118 -11 6 -31 21 -45 33 -13 11 -26
21 -29 21 -4 0 -154 106 -180 128 -5 4 -26 19 -45 32 -19 14 -37 27 -40 31 -3
3 -23 18 -45 35 -22 16 -51 39 -65 52 -14 12 -48 39 -76 60 -99 72 -294 241
-294 254 0 4 -5 8 -11 8 -20 0 -352 346 -420 439 -17 22 -35 41 -40 41 -5 0
-9 4 -9 10 0 5 -31 55 -70 111 -38 56 -70 108 -70 116 0 7 -4 13 -8 13 -4 0
-13 12 -20 28 -7 15 -23 47 -36 72 -28 54 -70 170 -63 176 2 2 31 14 63 25 32
11 95 37 139 59 196 94 311 153 336 171 15 10 30 19 34 19 4 0 42 26 84 58 42
32 83 63 92 68 17 9 80 86 111 135 12 19 16 43 14 82 -6 95 -53 137 -155 137
l-65 0 45 32 c24 18 46 35 49 38 3 4 28 22 55 40 28 19 56 40 62 46 7 7 23 21
36 31 37 30 117 133 122 159 3 13 7 35 10 47 7 35 -35 71 -80 69 -20 -1 -40
-4 -45 -7 -6 -4 -10 -3 -10 0 0 7 94 121 129 156 42 42 158 221 180 278 31 77
25 130 -15 145 -17 6 -97 -18 -121 -37 -19 -14 -17 18 2 37 8 8 15 17 15 20 0
3 12 31 27 63 38 83 32 163 -13 163 -20 0 -19 6 30 153 44 132 52 167 62 242
3 22 9 70 14 107 10 64 0 134 -14 98z"/>
<path d="M1334 6666 c-8 -22 22 -256 42 -322 8 -26 11 -50 8 -55 -3 -5 -1 -9
4 -9 5 0 12 -19 16 -42 4 -23 11 -47 15 -53 9 -10 34 -95 32 -105 -1 -3 -8 -5
-17 -5 -8 0 -20 -8 -25 -18 -13 -22 -6 -104 9 -119 7 -7 12 -18 12 -26 0 -8
14 -40 32 -70 25 -43 28 -54 14 -49 -10 4 -24 7 -32 7 -11 0 -14 6 -9 23 4 15
3 18 -3 8 -7 -9 -19 -11 -40 -6 -17 3 -40 1 -51 -5 -31 -16 -29 -97 4 -162 28
-55 111 -183 135 -208 8 -8 33 -37 55 -65 22 -27 47 -56 55 -65 30 -33 60 -70
60 -75 0 -3 -9 -1 -19 5 -76 40 -150 -40 -110 -121 10 -19 25 -41 33 -48 9 -8
16 -19 16 -25 1 -16 142 -139 242 -209 l60 -42 -54 -7 c-29 -4 -59 -9 -67 -10
-18 -2 -65 -47 -80 -75 -17 -33 -4 -112 28 -165 22 -39 137 -146 194 -182 9
-6 17 -16 17 -23 0 -7 7 -10 16 -6 9 3 19 2 23 -3 9 -13 96 -65 176 -104 39
-19 74 -41 78 -47 4 -7 15 -13 24 -13 9 0 44 -13 77 -29 138 -65 195 -90 220
-97 32 -8 32 -8 1 -72 -14 -29 -25 -56 -25 -61 0 -12 -80 -163 -96 -182 -8 -8
-14 -21 -14 -27 0 -7 -4 -12 -10 -12 -5 0 -10 -5 -10 -11 0 -13 -69 -112 -82
-117 -4 -2 -8 -8 -8 -14 0 -9 -71 -100 -96 -123 -6 -5 -18 -21 -27 -34 -21
-31 -127 -147 -197 -214 -30 -28 -77 -74 -105 -102 -28 -27 -67 -63 -86 -79
-19 -16 -54 -48 -79 -70 -72 -65 -157 -136 -209 -175 -149 -111 -207 -155
-211 -161 -3 -3 -21 -17 -40 -30 -19 -13 -37 -27 -40 -30 -11 -12 -90 -60 -99
-60 -6 0 -14 -6 -18 -14 -8 -12 -71 -57 -304 -215 -149 -101 -199 -152 -199
-204 0 -56 65 -81 143 -56 46 15 157 71 200 101 15 11 27 16 27 12 0 -4 6 -1
13 7 6 9 45 39 85 68 139 99 152 122 30 54 -90 -51 -172 -85 -182 -76 -3 3 -8
-2 -12 -11 -3 -9 -17 -16 -31 -16 -13 0 -32 -4 -41 -9 -29 -15 -102 -24 -102
-12 0 6 19 23 43 38 23 15 44 30 47 33 3 3 16 11 30 18 14 7 47 26 73 42 27
17 53 27 59 24 7 -4 8 -2 4 5 -4 6 0 14 11 18 10 4 34 18 53 31 19 13 44 28
55 33 36 17 192 122 312 211 40 29 115 85 167 123 53 39 96 73 96 77 0 3 26
26 58 50 111 85 418 386 529 519 35 44 69 79 74 79 5 0 9 6 9 13 0 7 18 35 41
62 22 28 48 59 57 70 9 12 35 48 57 80 21 33 47 68 57 78 10 10 18 24 18 31 0
8 7 17 16 20 8 3 13 9 11 14 -3 4 8 26 24 50 16 23 29 44 29 46 0 2 18 36 40
76 22 40 40 79 40 86 0 8 5 14 11 14 6 0 9 14 7 33 -2 25 -7 31 -21 29 -31 -5
-191 54 -357 131 -100 48 -244 129 -253 144 -4 7 -14 13 -21 13 -17 0 -123 83
-163 128 -39 43 -46 89 -21 140 10 20 18 22 95 22 60 0 83 -4 83 -12 0 -7 13
-13 28 -14 16 -1 54 -13 85 -27 64 -31 89 -34 81 -12 -4 8 -12 15 -19 15 -7 0
-15 3 -17 8 -1 4 -37 32 -78 62 -41 30 -91 70 -112 88 -20 18 -49 43 -65 55
-44 34 -137 128 -168 169 -29 40 -28 68 4 68 22 0 160 -70 206 -105 17 -12 41
-26 54 -30 18 -5 8 8 -34 46 -118 109 -175 171 -298 324 -35 43 -117 160 -117
166 0 4 -6 14 -13 21 -19 20 -48 101 -39 110 14 14 74 -12 124 -53 26 -22 55
-39 65 -39 11 0 14 3 7 8 -36 23 -204 316 -189 330 3 3 37 -26 75 -66 64 -67
90 -85 90 -63 0 5 -4 11 -8 13 -23 9 -152 248 -152 281 0 8 -7 20 -15 27 -8 7
-15 18 -15 25 0 7 -14 46 -30 86 -17 41 -33 92 -37 114 -3 22 -12 46 -20 53
-7 7 -13 20 -13 28 0 8 -4 22 -9 32 -14 29 -71 210 -71 229 -1 10 -7 29 -15
43 -12 23 -14 24 -21 6z"/>
<path d="M1477 6476 c-10 -25 20 -183 54 -286 43 -131 158 -366 189 -385 6 -4
10 -16 10 -28 1 -25 23 -59 36 -56 5 2 45 -33 89 -77 80 -80 185 -164 205
-164 5 0 10 -6 11 -12 0 -7 23 -25 52 -39 89 -44 230 -119 241 -128 6 -4 18
-9 26 -9 8 0 63 -19 122 -41 58 -22 150 -52 205 -67 54 -14 110 -32 124 -40
14 -7 29 -11 32 -8 5 5 135 -32 267 -76 158 -53 230 -137 230 -270 0 -90 -35
-192 -100 -290 -9 -14 -28 -42 -41 -62 -13 -21 -27 -38 -31 -38 -5 0 -8 -7 -8
-15 0 -13 4 -13 28 2 98 62 205 167 267 263 50 78 55 89 65 160 24 165 -69
292 -295 403 -77 38 -140 65 -168 72 -14 4 -27 15 -30 26 -5 18 21 100 36 115
4 4 7 15 7 24 0 36 127 300 166 345 13 16 39 47 56 70 63 81 155 96 271 42 95
-44 194 -159 181 -211 -6 -24 -95 -106 -115 -106 -14 0 -112 -66 -141 -95 -72
-72 -96 -199 -57 -308 12 -34 28 -69 36 -78 7 -8 13 -21 13 -27 0 -6 16 -41
35 -76 19 -36 35 -71 35 -79 0 -7 5 -18 11 -24 19 -19 78 -164 90 -222 6 -30
11 -73 11 -95 -1 -50 -21 -136 -32 -136 -5 0 -11 -8 -14 -17 -8 -25 -81 -102
-157 -164 -35 -29 -70 -59 -77 -66 -7 -7 -17 -13 -21 -13 -4 0 -16 -8 -27 -18
-19 -18 -101 -83 -145 -115 -116 -85 -206 -147 -214 -147 -5 0 -20 -11 -32
-23 -12 -13 -77 -61 -145 -107 -292 -200 -412 -335 -433 -488 -5 -41 0 -79 31
-199 50 -199 49 -303 -1 -303 -27 0 -56 36 -76 95 -19 58 -19 58 -20 205 0
152 -9 157 -50 31 -12 -36 -25 -70 -29 -76 -4 -5 -11 -26 -15 -45 -4 -19 -12
-38 -18 -41 -5 -4 -11 -17 -12 -30 -6 -46 -97 -250 -122 -270 -20 -17 -39 -4
-46 29 -3 17 2 81 13 143 10 63 17 115 15 118 -10 9 -31 -20 -50 -69 -11 -28
-28 -60 -37 -70 -10 -11 -18 -24 -18 -30 0 -13 -51 -111 -68 -128 -6 -7 -12
-17 -12 -22 0 -11 -95 -176 -112 -195 -24 -27 -35 -41 -39 -51 -11 -27 -77
-104 -97 -113 -35 -17 -50 -13 -65 15 -13 24 -12 34 9 92 13 36 24 67 24 70 0
3 -26 -23 -57 -58 -85 -95 -177 -180 -185 -172 -10 10 2 52 14 52 5 0 7 4 4 9
-3 5 1 14 9 21 8 7 15 17 15 22 0 5 18 34 41 64 22 31 38 58 35 61 -7 8 -62
-31 -118 -83 -39 -35 -213 -180 -294 -244 -101 -80 -179 -145 -182 -152 -2 -4
-9 -8 -16 -8 -7 0 -23 -12 -37 -26 -13 -14 -53 -46 -89 -72 -36 -25 -67 -49
-70 -53 -3 -4 -23 -15 -44 -25 -82 -39 -43 -61 42 -23 26 11 56 24 67 29 11 5
33 11 49 15 44 10 308 129 352 159 35 24 39 25 43 9 8 -42 32 -47 91 -20 37
17 100 61 138 96 32 29 58 33 49 8 -7 -21 23 -67 43 -67 44 0 117 46 183 114
37 38 67 75 67 82 0 6 6 14 13 17 7 3 29 33 48 67 18 34 44 78 56 98 26 43 43
79 43 93 0 5 5 9 10 9 6 0 10 7 10 15 0 8 5 15 10 15 6 0 10 -7 10 -15 0 -25
50 -65 82 -65 57 0 122 87 177 235 13 33 27 68 32 77 5 10 9 26 9 35 0 20 23
89 32 99 3 3 14 -21 23 -53 31 -113 88 -226 135 -268 11 -10 39 -21 62 -25 52
-10 82 5 118 58 22 32 25 46 25 131 0 100 -24 199 -80 336 -27 65 -44 133 -50
206 -6 67 -4 81 19 130 32 71 83 119 255 241 36 26 71 52 78 58 7 5 17 10 22
10 6 0 22 11 36 25 15 13 68 51 118 84 51 33 97 64 103 68 5 4 17 13 26 18 9
6 54 36 100 68 47 31 89 57 95 57 6 0 16 6 22 13 6 8 49 40 96 72 76 51 152
125 230 222 14 17 40 62 57 100 30 63 32 75 32 178 0 122 -8 155 -73 284 -44
89 -85 157 -112 186 -10 11 -30 42 -44 68 -41 77 -30 192 23 245 19 19 28 19
313 -6 l86 -7 -9 37 c-4 21 -32 74 -61 119 l-53 81 12 48 c14 56 14 59 -11
125 -14 37 -42 72 -103 133 -46 45 -96 85 -110 89 -15 3 -47 15 -71 26 -29 13
-66 19 -113 19 -59 0 -80 -5 -133 -32 -58 -30 -125 -85 -186 -156 -31 -36
-117 -166 -126 -191 -4 -10 -10 -20 -14 -23 -8 -6 -119 -247 -119 -259 0 -5
-6 -13 -13 -19 -14 -12 -126 22 -257 78 -41 18 -85 34 -97 37 -13 3 -23 9 -23
14 0 5 -6 9 -13 9 -27 0 -283 145 -362 206 -25 19 -48 34 -51 34 -2 0 -15 10
-28 23 -13 12 -41 36 -62 54 -50 40 -244 232 -244 241 0 4 -13 21 -28 37 -40
43 -142 194 -142 210 0 8 -4 16 -9 19 -11 7 -51 83 -51 96 0 5 -8 23 -19 40
-14 24 -20 27 -24 16z"/>
<path d="M6503 6478 c-4 -7 -9 -21 -10 -32 -4 -23 -75 -160 -85 -164 -5 -2 -8
-10 -8 -17 0 -8 -6 -20 -13 -27 -7 -7 -28 -35 -47 -63 -18 -27 -36 -52 -39
-55 -4 -3 -18 -22 -34 -42 -88 -119 -427 -417 -474 -418 -7 0 -13 -4 -13 -10
0 -5 -6 -10 -14 -10 -8 0 -16 -4 -18 -9 -9 -24 -329 -181 -458 -225 -25 -8
-75 -26 -111 -39 l-65 -24 -24 66 c-13 36 -26 68 -30 71 -3 3 -14 23 -22 45
-34 84 -70 155 -79 155 -5 0 -9 5 -9 11 0 16 -62 109 -72 109 -4 0 -8 4 -8 10
0 23 -105 133 -170 176 -62 42 -101 54 -181 54 -72 0 -159 -26 -195 -58 -10
-9 -32 -24 -48 -32 -24 -12 -87 -80 -134 -145 -30 -41 -45 -159 -22 -167 14
-4 -7 -64 -37 -104 -12 -17 -23 -36 -23 -42 0 -7 -4 -12 -9 -12 -14 0 -51 -87
-45 -105 3 -8 9 -13 13 -11 3 2 58 7 121 11 63 3 144 10 180 14 36 5 68 7 72
4 4 -2 19 -24 34 -48 20 -35 26 -58 25 -105 0 -67 -13 -95 -98 -217 -24 -34
-43 -66 -43 -72 0 -5 -4 -11 -8 -13 -13 -5 -51 -85 -79 -167 -35 -99 -38 -238
-8 -316 32 -84 66 -137 124 -199 31 -32 68 -71 82 -86 23 -24 116 -94 167
-125 9 -6 50 -33 91 -60 41 -28 82 -55 93 -61 10 -6 26 -18 36 -27 10 -10 24
-17 30 -17 7 0 12 -4 12 -9 0 -5 8 -11 18 -14 9 -4 62 -38 117 -77 55 -39 143
-100 196 -135 52 -36 104 -73 115 -83 10 -10 27 -23 36 -28 16 -9 92 -80 116
-109 29 -34 45 -106 39 -179 -3 -39 -9 -82 -15 -96 -5 -14 -18 -52 -28 -85
-10 -33 -21 -65 -26 -71 -5 -7 -22 -65 -39 -130 -39 -148 -36 -233 7 -295 34
-50 87 -67 136 -45 41 19 68 40 68 54 0 6 6 15 13 19 21 14 66 116 93 212 10
35 20 58 22 50 3 -8 10 -27 17 -44 7 -16 25 -68 40 -115 29 -88 41 -116 88
-197 27 -45 83 -93 111 -93 16 0 74 57 81 81 5 14 16 -1 49 -64 24 -45 55
-104 69 -130 27 -51 119 -169 172 -223 38 -39 118 -84 149 -84 26 0 56 37 56
70 0 20 15 28 22 11 4 -12 139 -111 151 -111 5 0 15 -7 22 -16 9 -13 18 -15
41 -7 16 5 29 16 30 24 2 30 5 32 22 17 38 -32 319 -159 383 -173 19 -4 36
-11 39 -14 6 -9 135 -51 155 -51 21 0 19 16 -2 24 -46 15 -331 232 -543 414
-8 6 -73 60 -145 118 -71 59 -144 119 -162 135 -48 43 -54 11 -7 -40 12 -13
28 -35 35 -50 7 -14 19 -33 26 -42 17 -21 34 -77 24 -83 -10 -6 -71 53 -181
174 -52 58 -99 107 -105 109 -5 2 0 -7 13 -21 12 -13 22 -28 22 -32 0 -4 11
-24 25 -44 52 -76 22 -160 -46 -132 -16 7 -29 19 -29 26 0 8 -4 14 -9 14 -5 0
-26 24 -47 53 -21 28 -41 54 -45 57 -3 3 -12 17 -20 32 -8 15 -38 69 -68 120
-30 51 -83 149 -119 218 -35 69 -71 134 -79 145 -16 22 -16 14 7 -160 11 -90
5 -125 -24 -125 -19 0 -31 19 -73 113 -28 61 -61 139 -73 172 -12 33 -26 69
-30 80 -5 11 -20 52 -34 90 -34 97 -37 105 -45 105 -4 0 -7 -60 -7 -132 0
-101 -4 -146 -18 -185 -31 -91 -80 -131 -106 -84 -14 27 -13 127 4 191 7 30
19 82 26 115 7 33 17 64 22 70 11 12 10 122 -1 129 -4 3 -11 23 -14 44 -13 75
-124 210 -257 310 -41 31 -76 60 -78 64 -2 4 -8 8 -13 8 -8 0 -115 70 -169
112 -55 42 -261 188 -265 188 -3 0 -13 7 -23 16 -9 8 -42 34 -72 57 -30 23
-57 44 -60 47 -3 3 -23 18 -45 35 -22 16 -76 61 -120 99 -120 107 -159 156
-149 188 4 13 1 16 -10 12 -14 -5 -16 7 -16 94 0 56 4 103 9 106 4 3 11 19 14
36 4 16 16 51 28 77 27 63 140 291 147 298 13 13 43 115 49 166 12 116 -50
226 -164 291 -29 16 -56 34 -59 39 -3 5 -9 7 -13 4 -5 -2 -30 15 -56 40 -41
37 -47 48 -41 70 12 49 81 135 108 135 10 0 17 5 16 12 -5 19 102 67 164 74
82 9 132 -17 198 -105 51 -70 170 -296 170 -324 0 -9 4 -18 9 -21 4 -3 11 -19
14 -35 4 -16 16 -50 27 -75 12 -25 20 -52 18 -61 -2 -11 -36 -30 -93 -51 -49
-19 -97 -39 -105 -44 -8 -6 -32 -18 -52 -27 -21 -10 -38 -21 -38 -25 0 -5 -4
-8 -10 -8 -29 0 -180 -155 -180 -185 0 -11 -5 -26 -11 -32 -14 -14 -14 -162 0
-176 6 -6 11 -21 11 -32 0 -25 80 -141 137 -200 72 -73 181 -160 190 -151 3 3
-17 40 -45 83 -54 82 -105 187 -95 196 3 4 -2 13 -11 22 -25 26 -22 161 5 212
29 55 68 96 114 121 61 33 234 90 342 113 29 6 55 15 59 20 3 5 16 9 29 9 13
0 64 14 113 30 50 17 99 30 110 30 12 0 23 4 27 9 3 5 36 19 73 32 37 12 90
33 119 45 28 13 54 24 57 24 2 0 49 25 103 56 54 31 104 57 110 58 7 1 21 10
30 19 10 10 59 50 108 90 50 39 101 85 115 102 14 16 35 39 46 50 25 24 184
259 184 273 0 5 20 58 45 118 25 59 45 117 45 126 0 10 4 26 9 36 10 18 41
184 41 215 0 20 -15 23 -27 5z"/>
<path d="M3668 5743 c-22 -5 -35 -50 -21 -72 6 -9 24 -17 42 -19 26 -3 33 1
41 22 11 31 4 53 -21 66 -10 6 -19 9 -21 9 -2 -1 -11 -3 -20 -6z"/>
<path d="M4302 5731 c-18 -11 -11 -61 10 -75 43 -26 99 31 68 70 -14 15 -57
19 -78 5z"/>
<path d="M6391 5564 c0 -11 3 -14 6 -6 3 7 2 16 -1 19 -3 4 -6 -2 -5 -13z"/>
<path d="M2276 5142 c-13 -39 37 -104 164 -217 42 -37 49 -47 30 -42 -95 26
-141 20 -158 -19 -11 -22 -9 -32 15 -76 15 -27 41 -61 58 -75 16 -13 37 -30
46 -38 33 -26 155 -101 214 -130 33 -16 62 -33 63 -37 2 -5 12 -8 22 -8 9 0
23 -6 29 -14 7 -8 24 -17 38 -21 14 -3 58 -21 97 -39 119 -55 140 -64 174 -71
33 -7 33 -7 15 14 -9 12 -23 21 -29 21 -10 0 -56 24 -154 81 -13 8 -30 20 -38
27 -7 6 -17 12 -22 12 -5 0 -15 6 -22 13 -7 6 -45 33 -84 59 -73 50 -144 120
-144 143 0 21 20 29 65 26 42 -2 153 -30 220 -55 22 -8 51 -15 64 -16 24 0 23
1 -9 25 -19 14 -40 25 -47 25 -7 0 -13 5 -13 10 0 6 -4 10 -9 10 -6 0 -29 13
-53 28 -24 16 -70 46 -102 68 -33 21 -71 49 -84 61 -14 13 -28 23 -32 23 -12
0 -20 28 -14 45 8 20 73 6 150 -32 45 -23 61 -13 30 20 -14 15 -30 27 -35 27
-6 0 -14 6 -18 14 -13 22 -132 88 -238 131 -22 9 -72 19 -111 22 -66 5 -72 4
-78 -15z"/>
<path d="M5585 5144 c-161 -57 -351 -182 -321 -211 2 -2 28 7 57 20 73 32 128
41 136 21 6 -16 -77 -99 -109 -110 -10 -3 -18 -10 -18 -15 0 -5 -5 -9 -11 -9
-6 0 -44 -21 -84 -47 -40 -27 -95 -61 -122 -77 -56 -34 -41 -46 28 -21 90 32
185 55 237 55 50 0 52 -1 52 -26 0 -18 -14 -39 -42 -66 -43 -40 -121 -98 -133
-98 -3 0 -23 -13 -43 -29 -58 -46 -242 -152 -253 -146 -5 4 -9 -1 -9 -9 0 -8
-8 -17 -17 -20 -10 -2 0 -2 22 1 22 3 76 22 120 42 44 21 112 50 150 66 39 16
75 32 81 37 6 4 31 19 55 32 24 13 60 33 79 44 19 12 51 31 70 42 59 34 72 44
113 80 49 43 97 116 97 147 0 37 -41 57 -102 49 -29 -4 -58 -12 -65 -18 -7 -5
-17 -8 -23 -6 -5 1 22 30 62 63 99 83 149 145 151 187 l2 33 -60 2 c-33 0 -78
-5 -100 -13z"/>
<path d="M1642 2477 c-23 -24 -28 -37 -14 -37 4 0 16 14 25 30 22 36 18 38
-11 7z"/>
<path d="M1165 2330 c-17 -18 -17 -20 -1 -20 9 0 19 7 23 15 9 25 -2 27 -22 5z"/>
</g>
</svg>
